<svg id="Group_97" data-name="Group 97" xmlns="http://www.w3.org/2000/svg" width="414" height="896" viewBox="0 0 414 896">
  <rect id="Rectangle_214" data-name="Rectangle 214" width="414" height="896" fill="#00508d"/>
  <g id="Group_95" data-name="Group 95" transform="translate(-634 6.617)">
    <path id="Path_159" data-name="Path 159" d="M564.585,110.05h-.131a14.971,14.971,0,0,0-12.5,6.842,14.971,14.971,0,0,0-12.5-6.842h-.131a14.877,14.877,0,0,0-14.735,14.868c0,4.867,2.132,11.774,6.289,17.457,7.92,10.829,21.077,20.3,21.077,20.3s13.157-9.472,21.075-20.3c4.159-5.683,6.289-12.59,6.289-17.457A14.877,14.877,0,0,0,564.585,110.05Zm-1.878,33.159a2.949,2.949,0,0,1-2.743-1.894h-3.122a.987.987,0,0,1-.929-.672l-.959-2.89-3.035,10.6a.982.982,0,0,1-.942.709h-.061a.97.97,0,0,1-.91-.812l-3.128-18.812-2.286,11.132a.975.975,0,0,1-.947.74h-4.4a.978.978,0,1,1,0-1.955h3.628l3.238-14.966a.982.982,0,0,1,1.925.081l3.194,19.19,2.72-9.488a.963.963,0,0,1,.915-.7h.019a.977.977,0,0,1,.928.672l1.734,5.218h2.377a2.933,2.933,0,1,1,2.786,3.851Z" transform="translate(368.124 305.343)" fill="#fff"/>
    <text id="Tulip" transform="translate(734 463.383)" fill="#fff" font-size="60" font-family="Montserrat-Light, Montserrat" font-weight="300"><tspan x="0" y="0">Tulip</tspan></text>
  </g>
</svg>
